<svg width="25" height="25" viewBox="0 0 25 25" fill="none" xmlns="http://www.w3.org/2000/svg">
<path fill-rule="evenodd" clip-rule="evenodd" d="M3.28489 14.8327C1.38265 10.3567 3.46907 5.18617 7.94504 3.28393C12.421 1.38168 17.5916 3.4681 19.4938 7.94408C21.3961 12.42 19.3096 17.5906 14.8337 19.4929C10.3577 21.3951 5.18713 19.3087 3.28489 14.8327ZM8.53174 4.66443C4.8182 6.24265 3.08717 10.5325 4.66539 14.246C6.24361 17.9595 10.5334 19.6906 14.247 18.1124C17.9605 16.5341 19.6915 12.2443 18.1133 8.53077C16.5351 4.81723 12.2453 3.08621 8.53174 4.66443Z" fill="#1E3646"/>
<path fill-rule="evenodd" clip-rule="evenodd" d="M16.555 16.5539C16.8479 16.261 17.3228 16.2611 17.6157 16.554L23.8637 22.8029C24.1566 23.0958 24.1565 23.5707 23.8636 23.8635C23.5707 24.1564 23.0958 24.1564 22.803 23.8635L16.555 17.6146C16.2621 17.3217 16.2621 16.8468 16.555 16.5539Z" fill="#1E3646"/>
</svg>
