<svg width="94" height="48" viewBox="0 0 94 48" fill="none" xmlns="http://www.w3.org/2000/svg">
<path fill-rule="evenodd" clip-rule="evenodd" d="M27.5727 8.50326L27.5742 8.67409V39.3255C27.5742 44.979 22.6607 49.1031 17.62 47.7368L17.4672 47.6937L4.43835 43.8744C1.86845 43.1218 0.0687729 40.6319 0 37.766L2.63084e-05 25.1033L3.68924 25.1503C4.3551 25.1588 4.89798 25.746 4.90877 26.464L4.90893 26.4858V33.0658C4.90893 33.5547 5.09497 34.0315 5.41947 34.3767C5.73001 34.7064 6.13318 34.8869 6.55768 34.8869C6.56785 34.8869 6.57788 34.8869 6.58805 34.8858C7.4705 34.8681 8.19001 34.0841 8.20421 33.1401L8.20443 33.1114L8.35117 26.0817C8.37681 24.8478 7.94652 23.6881 7.1393 22.8162C6.34035 21.9529 5.28021 21.4904 4.15369 21.5096L4.11953 21.5103L2.63084e-05 21.6183L5.13462e-08 10.2342C0.0680724 7.39687 1.83193 4.92922 4.35997 4.14878L4.43835 4.1252L17.4672 0.306421C22.51 -1.17162 27.4739 2.88159 27.5727 8.50326ZM19.7976 17.9856H17.636C17.2359 17.9856 16.8594 18.1515 16.5736 18.4532L16.5596 18.4681L10.394 25.1394C9.61725 25.9337 9.1894 27.0078 9.1894 28.1649C9.1894 29.3095 9.60873 30.3744 10.3708 31.1662L10.394 31.1901L16.5593 37.8608C16.8423 38.1665 17.2171 38.3375 17.6166 38.3429L17.6362 38.3431H19.7915C20.0853 38.3431 20.3477 38.1538 20.4601 37.8597C20.5707 37.5715 20.5129 37.2423 20.3132 37.0175L20.3033 37.0065L12.1316 28.1649L20.3076 19.3177C20.5146 19.0938 20.576 18.7599 20.4639 18.4674C20.3519 18.1747 20.0903 17.9856 19.7976 17.9856ZM6.55679 10.8642C4.92524 10.8642 3.59786 12.3004 3.59786 14.0658C3.59786 15.8311 4.92524 17.2673 6.55679 17.2673C8.18823 17.2673 9.51561 15.8311 9.51561 14.0658C9.51561 12.3004 8.18823 10.8642 6.55679 10.8642Z" fill="#010393"/>
<path fill-rule="evenodd" clip-rule="evenodd" d="M45.0681 15.8157V32.3657H42.7485V15.8157H45.0681ZM44.0198 9.05145C44.6889 9.05145 45.4696 9.72554 45.4696 10.6553C45.4696 11.7246 44.6889 12.3289 44.0198 12.3289C43.0619 12.3289 42.4377 11.726 42.4362 10.659C42.4362 10.66 42.4362 10.6611 42.4362 10.6622C42.4362 11.736 43.0608 12.3429 44.0198 12.3429C44.6889 12.3429 45.4696 11.736 45.4696 10.6622C45.4696 9.72842 44.6889 9.05145 44.0198 9.05145ZM37.8328 10.1486V15.6285H41.0574V17.7095H37.8328V32.0915H35.5169V17.7095H32.5088V15.6285H35.5169V10.1486H37.8328ZM62.0153 23.3002C62.0153 18.2469 59.3406 15.0857 55.2423 15.0857C53.0421 15.0857 50.9282 16.3318 50.1517 18.3162V15.6626H47.9515V32.0914H50.1517V22.6311C50.1517 19.8391 52.2655 17.4624 54.9834 17.4624C57.5934 17.4624 59.8367 19.8391 59.8367 22.6311V32.0914H62.0153V23.3002ZM76.7808 15.8157V32.3657H74.4611V15.8157H76.7808ZM75.7324 9.05145C76.4016 9.05145 77.1822 9.72554 77.1822 10.6553C77.1822 11.7246 76.4016 12.3289 75.7324 12.3289C74.7733 12.3289 74.1488 11.7246 74.1488 10.6553C74.1488 9.72554 74.7733 9.05145 75.7324 9.05145ZM93.7279 23.3002C93.7279 18.2469 91.0532 15.0857 86.9548 15.0857C84.7547 15.0857 82.6408 16.3318 81.8643 18.3162V15.6626H79.6641V32.0914H81.8643V22.6311C81.8643 19.8391 83.9781 17.4624 86.696 17.4624C89.306 17.4624 91.5494 19.8391 91.5494 22.6311V32.0914H93.7279V23.3002ZM72.77 15.36L64.868 23.8628L72.77 32.3657H69.6162L63.9456 26.2639V21.4617L69.6162 15.36H72.77Z" fill="#010393"/>
<path fill-rule="evenodd" clip-rule="evenodd" d="M71.7519 36.3736V37.5849C71.8286 37.5151 71.9118 37.4583 72.0015 37.4147C72.0912 37.3721 72.1982 37.3503 72.3229 37.3503C72.4391 37.3503 72.5422 37.3721 72.6319 37.4147C72.7215 37.4583 72.7972 37.5184 72.8588 37.5948C72.9204 37.6722 72.967 37.7639 72.9984 37.8698C73.0299 37.9767 73.0457 38.0924 73.0457 38.2168V39.665H72.4091V38.2168C72.4091 38.1055 72.3851 38.0182 72.3372 37.956C72.2893 37.8938 72.2187 37.8621 72.1258 37.8621C72.0559 37.8621 71.9902 37.8785 71.9285 37.9112C71.8669 37.9429 71.8081 37.9865 71.7519 38.04V39.665H71.1154V36.3736H71.7519ZM63.8621 36.6657V37.3404H64.4256V37.8127H63.8621V38.9607C63.8621 39.0138 63.8751 39.058 63.9013 39.0934C63.9273 39.1277 63.965 39.1454 64.0142 39.1454C64.0396 39.1454 64.0607 39.1432 64.0778 39.1376C64.095 39.1321 64.11 39.1266 64.1226 39.1199L64.13 39.116C64.1369 39.1124 64.1434 39.1089 64.1498 39.1059L64.1584 39.1023C64.1696 39.0967 64.1826 39.0945 64.1975 39.0945C64.2183 39.0945 64.2352 39.0989 64.2478 39.1089C64.2606 39.1177 64.2734 39.1332 64.2869 39.1542L64.4971 39.4816C64.4077 39.5491 64.307 39.5988 64.1954 39.632C64.0835 39.6663 63.9679 39.6829 63.8486 39.6829C63.7384 39.6829 63.6411 39.6663 63.5569 39.6342C63.4727 39.6021 63.4018 39.5568 63.3444 39.4982C63.2872 39.4396 63.2435 39.3688 63.2137 39.2858C63.1838 39.2029 63.1689 39.11 63.1689 39.0071V37.8127H62.9722C62.9365 37.8127 62.9059 37.8016 62.8805 37.7784C62.8551 37.7551 62.8425 37.7219 62.8425 37.6766V37.4078L63.2114 37.336L63.3478 36.7719C63.3657 36.7011 63.4164 36.6657 63.4999 36.6657H63.8621ZM66.335 37.2501C66.4706 37.2501 66.5945 37.2741 66.7071 37.3234C66.8195 37.3727 66.9163 37.4449 66.9972 37.5388C67.078 37.6328 67.1412 37.7474 67.1866 37.8838C67.232 38.0202 67.2547 38.1737 67.2547 38.3468C67.2547 38.4007 67.2527 38.4442 67.2488 38.4786C67.2448 38.5118 67.2376 38.5393 67.2271 38.5588C67.2166 38.5794 67.2024 38.5932 67.1846 38.6001C67.1669 38.6081 67.1442 38.6127 67.1166 38.6127H65.9363C65.9561 38.8121 66.008 38.9577 66.0922 39.047C66.1764 39.1376 66.2849 39.1823 66.4179 39.1823C66.4889 39.1823 66.5501 39.172 66.6014 39.1525C66.6528 39.133 66.6985 39.1101 66.7386 39.086C66.7641 39.07 66.7883 39.0554 66.8111 39.0415L66.8112 39.0415L66.8492 39.0184C66.8827 38.9989 66.9179 38.9886 66.9547 38.9886C67.0034 38.9886 67.0402 39.0092 67.0653 39.0505L67.2429 39.3072C67.1798 39.392 67.1116 39.4608 67.0386 39.5135C66.9656 39.5674 66.8906 39.6086 66.8137 39.6384C66.7367 39.6682 66.6597 39.6888 66.5827 39.7014C66.5057 39.7129 66.4323 39.7186 66.3627 39.7186C66.2192 39.7186 66.0845 39.6911 65.959 39.6361C65.8333 39.5811 65.7235 39.5009 65.6294 39.3932C65.5353 39.2854 65.4609 39.1513 65.4064 38.9909C65.3518 38.8305 65.3244 38.6448 65.3244 38.4316C65.3244 38.2723 65.3478 38.1199 65.3945 37.9778C65.4412 37.8345 65.5083 37.7085 65.5959 37.6007C65.6833 37.493 65.7893 37.4082 65.9137 37.344C66.0379 37.281 66.1783 37.2501 66.335 37.2501ZM66.3468 37.744C66.2297 37.744 66.1383 37.7829 66.0725 37.8609C66.0067 37.9388 65.9632 38.05 65.9422 38.1967H66.7061C66.7061 38.1394 66.6997 38.0843 66.6872 38.0305C66.6748 37.9766 66.6544 37.9285 66.6262 37.8861C66.5978 37.8437 66.5606 37.8093 66.5145 37.7829C66.4686 37.7566 66.4126 37.744 66.3468 37.744ZM69.9174 37.3394C69.7867 37.2798 69.6347 37.2501 69.4614 37.2501C69.281 37.2501 69.1223 37.281 68.9852 37.344C68.8481 37.4082 68.7331 37.4942 68.6402 37.6042C68.5471 37.7142 68.4767 37.8448 68.4291 37.995C68.3815 38.1451 68.3578 38.3056 68.3578 38.4786C68.3578 38.6757 68.3851 38.8511 68.4398 39.0046C68.4944 39.1582 68.5683 39.2889 68.6614 39.3943C68.7544 39.4997 68.8624 39.5799 68.9852 39.635C69.1081 39.69 69.2369 39.7186 69.3719 39.7186C69.4472 39.7186 69.5246 39.7129 69.6042 39.7014C69.6837 39.6888 69.7629 39.6682 69.8418 39.6384C69.9206 39.6086 69.9976 39.5674 70.0729 39.5135C70.1481 39.4608 70.2199 39.392 70.2881 39.3072L70.0963 39.0505C70.0694 39.0092 70.0296 38.9886 69.977 38.9886C69.9373 38.9886 69.9042 38.9989 69.8779 39.0207L69.8686 39.0284L69.8686 39.0285L69.8685 39.0285L69.8684 39.0285C69.8448 39.0482 69.8192 39.0695 69.7917 39.0917C69.7604 39.1169 69.7224 39.1399 69.6777 39.1605C69.6329 39.1811 69.5722 39.1914 69.4955 39.1914C69.3521 39.1914 69.2395 39.1307 69.1579 39.0069C69.0761 38.8843 69.0353 38.7078 69.0353 38.4786C69.0353 38.3686 69.0445 38.2712 69.0629 38.1841C69.0814 38.097 69.1098 38.0236 69.1482 37.9629C69.1867 37.9033 69.2351 37.8575 69.2942 37.8254C69.3531 37.7921 69.423 37.7761 69.5041 37.7761C69.5694 37.7761 69.6241 37.7853 69.6681 37.8013C69.7122 37.8185 69.7504 37.838 69.7831 37.8586L69.8071 37.8737L69.8072 37.8737L69.8072 37.8738C69.8304 37.8884 69.8519 37.9019 69.8716 37.9148C69.8979 37.932 69.9273 37.94 69.96 37.94C69.9942 37.94 70.0204 37.9331 70.0388 37.917C70.0572 37.9022 70.0765 37.8815 70.0963 37.8552L70.2712 37.603C70.166 37.4873 70.0481 37.4002 69.9174 37.3394ZM77.0174 37.3807C76.9276 37.3288 76.8301 37.3029 76.7248 37.3029C76.6547 37.3029 76.5899 37.3104 76.5307 37.3266C76.4716 37.3428 76.4164 37.3645 76.365 37.3926C76.3137 37.4217 76.2656 37.4552 76.2207 37.4941C76.1759 37.5331 76.134 37.5774 76.095 37.6249L76.05 37.4596C76.0397 37.4217 76.0218 37.3937 75.9965 37.3742C75.9711 37.3558 75.9395 37.3461 75.9019 37.3461H75.5276V40.32H76.132V39.4533C76.1905 39.5106 76.2556 39.5549 76.327 39.5884C76.3985 39.6219 76.4869 39.6392 76.5922 39.6392C76.7208 39.6392 76.8381 39.609 76.9441 39.5495C77.0501 39.4901 77.141 39.4069 77.2171 39.301C77.2932 39.1951 77.3523 39.0708 77.3945 38.9271C77.4368 38.7834 77.4579 38.6266 77.4579 38.457C77.4579 38.2755 77.4394 38.1134 77.4024 37.9696C77.3653 37.827 77.3143 37.7059 77.2493 37.6076C77.1843 37.5093 77.1069 37.4336 77.0174 37.3807ZM76.3943 37.8324C76.43 37.8237 76.4699 37.8183 76.5142 37.8183C76.5622 37.8183 76.6059 37.8291 76.6448 37.8518C76.6839 37.8734 76.7173 37.9091 76.7452 37.9588C76.7731 38.0096 76.795 38.0744 76.8106 38.1566C76.8262 38.2376 76.834 38.337 76.834 38.457C76.834 38.5813 76.8242 38.6871 76.8047 38.7747C76.7852 38.8611 76.7582 38.9325 76.7238 38.9865C76.6894 39.0416 76.6488 39.0805 76.602 39.1054C76.5551 39.1302 76.5038 39.1421 76.4479 39.1421C76.3893 39.1421 76.3335 39.1313 76.2802 39.1086C76.2269 39.0859 76.1775 39.047 76.132 38.9897V38.0323C76.158 37.9977 76.184 37.9664 76.2101 37.9393C76.236 37.9123 76.2643 37.8907 76.2948 37.8734C76.3254 37.8562 76.3585 37.8421 76.3943 37.8324ZM79.6281 37.3029C79.7613 37.3029 79.8815 37.3257 79.9885 37.3725C80.0955 37.4193 80.1862 37.4844 80.2607 37.5678C80.3351 37.6523 80.3921 37.7516 80.4318 37.8658C80.4715 37.9811 80.4913 38.1067 80.4913 38.2437V39.7338H80.1894C80.1271 39.7338 80.0801 39.7246 80.048 39.7064C80.0161 39.6881 79.9897 39.6504 79.9684 39.5922L79.9216 39.4609C79.8663 39.5111 79.8132 39.5556 79.762 39.5933C79.711 39.6321 79.6583 39.6653 79.6037 39.6915C79.5491 39.7189 79.4911 39.7383 79.4294 39.752C79.3678 39.7646 79.2993 39.7714 79.2243 39.7714C79.1236 39.7714 79.0321 39.7566 78.95 39.7281C78.8677 39.6995 78.7981 39.6584 78.7406 39.6024C78.6832 39.5477 78.6389 39.478 78.6077 39.3958C78.5765 39.3136 78.5609 39.2188 78.5609 39.1115C78.5609 39.0258 78.5808 38.9391 78.6204 38.85C78.6601 38.7609 78.7289 38.6799 78.8268 38.6068C78.9245 38.5337 79.0563 38.4721 79.2221 38.423C79.3879 38.3739 79.597 38.3488 79.8492 38.3488V38.2471C79.8492 38.1067 79.8227 38.0039 79.7696 37.9423C79.7164 37.8795 79.6409 37.8475 79.5431 37.8475C79.4652 37.8475 79.4014 37.8567 79.3517 37.8749C79.3022 37.8943 79.2579 37.9149 79.2189 37.9377C79.1799 37.9605 79.1419 37.9811 79.1052 37.9994C79.0682 38.0176 79.0245 38.0268 78.9735 38.0268C78.9279 38.0268 78.8894 38.0154 78.8576 37.9914C78.8256 37.9674 78.8005 37.9389 78.7821 37.9035L78.663 37.6797C78.7961 37.5529 78.9439 37.4581 79.1062 37.3954C79.2684 37.3337 79.4425 37.3029 79.6281 37.3029ZM79.8492 38.7678C79.7175 38.7678 79.609 38.777 79.524 38.7964C79.439 38.8146 79.3716 38.8375 79.3221 38.866C79.2724 38.8934 79.238 38.9254 79.2189 38.9608C79.1998 38.9962 79.1902 39.035 79.1902 39.0761C79.1902 39.1583 79.2108 39.2165 79.2519 39.2496C79.2929 39.2828 79.3532 39.2999 79.4326 39.2999C79.5176 39.2999 79.5919 39.2839 79.6559 39.2508C79.7196 39.2188 79.7841 39.1663 79.8492 39.0944V38.7678ZM82.9732 37.3817C82.9156 37.3295 82.8396 37.3029 82.7447 37.3029C82.6324 37.3029 82.5288 37.3423 82.434 37.4223C82.3391 37.5011 82.2536 37.609 82.1775 37.747L82.1434 37.5197C82.138 37.4884 82.1317 37.4617 82.1243 37.4408C82.117 37.4188 82.1063 37.4014 82.0924 37.3875C82.0783 37.3748 82.0609 37.3655 82.0402 37.3585C82.0194 37.3527 81.9938 37.3493 81.963 37.3493H81.5944V39.7714H82.2155V38.2861C82.3091 38.0832 82.4374 37.9823 82.6004 37.9823C82.6472 37.9823 82.6859 37.9858 82.7165 37.9928C82.7474 37.9997 82.774 38.0032 82.7967 38.0032C82.8234 38.0032 82.8449 37.9963 82.8609 37.9835C82.8769 37.9708 82.8875 37.9475 82.8929 37.9151L82.9732 37.3817ZM84.5443 36.7543V37.4289H85.1078V37.9012H84.5443V39.0492C84.5443 39.1023 84.5573 39.1465 84.5834 39.1819C84.6095 39.2162 84.6472 39.2339 84.6963 39.2339C84.7217 39.2339 84.7429 39.2317 84.7601 39.2262C84.7771 39.2206 84.7921 39.2151 84.8048 39.2085L84.8109 39.2052C84.8213 39.1997 84.8311 39.1945 84.8406 39.1908C84.8518 39.1852 84.8648 39.1831 84.8797 39.1831C84.9005 39.1831 84.9174 39.1875 84.93 39.1974C84.9426 39.2063 84.9557 39.2218 84.9691 39.2428L85.1793 39.5701C85.0899 39.6376 84.9892 39.6874 84.8774 39.7205C84.7655 39.7548 84.65 39.7714 84.5308 39.7714C84.4205 39.7714 84.3233 39.7548 84.2391 39.7228C84.1548 39.6907 84.084 39.6454 84.0266 39.5867C83.9692 39.5281 83.9257 39.4573 83.8958 39.3744C83.866 39.2914 83.8511 39.1985 83.8511 39.0957V37.9012H83.6544C83.6185 37.9012 83.588 37.8901 83.5627 37.8669C83.5374 37.8437 83.5247 37.8105 83.5247 37.7652V37.4964L83.8936 37.4245L84.03 36.8605C84.0479 36.7897 84.0986 36.7543 84.182 36.7543H84.5443ZM87.7988 37.3715C87.7091 37.3261 87.6061 37.3029 87.4898 37.3029C87.4213 37.3029 87.358 37.3099 87.2998 37.325C87.2415 37.3401 87.1876 37.3599 87.1375 37.3855C87.0876 37.4123 87.0407 37.4437 86.9969 37.4809C86.9531 37.5182 86.9107 37.5589 86.8696 37.6031L86.8326 37.4623C86.8216 37.4216 86.8028 37.3913 86.7761 37.3704C86.7495 37.3506 86.7162 37.3401 86.6764 37.3401H86.2823V39.7714H86.9189V38.0384C86.975 37.9814 87.0338 37.9349 87.0954 37.9011C87.1571 37.8662 87.2228 37.8487 87.2927 37.8487C87.3856 37.8487 87.4562 37.8825 87.5041 37.9488C87.552 38.0152 87.576 38.1083 87.576 38.227V39.7714H88.2126V38.227C88.2126 38.0943 88.197 37.9709 88.1653 37.8569C88.1338 37.744 88.0873 37.6462 88.0257 37.5636C87.9641 37.4821 87.8884 37.4181 87.7988 37.3715ZM90.0504 37.3029C90.1861 37.3029 90.31 37.3269 90.4226 37.3762C90.535 37.4255 90.6318 37.4977 90.7127 37.5917C90.7936 37.6856 90.8568 37.8003 90.9022 37.9366C90.9476 38.073 90.9703 38.2266 90.9703 38.3996C90.9703 38.4535 90.9684 38.497 90.9643 38.5314C90.9604 38.5647 90.9532 38.5922 90.9426 38.6117C90.9321 38.6323 90.918 38.646 90.9002 38.6529C90.8824 38.6609 90.8597 38.6655 90.8322 38.6655H89.6518C89.6715 38.8649 89.7235 39.0105 89.8078 39.0999C89.8919 39.1904 90.0004 39.2351 90.1334 39.2351C90.2044 39.2351 90.2657 39.2248 90.3169 39.2053C90.3683 39.1858 90.414 39.1629 90.4541 39.1388C90.4795 39.1229 90.5036 39.1083 90.5263 39.0946L90.5646 39.0712C90.5982 39.0517 90.6335 39.0414 90.6702 39.0414C90.719 39.0414 90.7557 39.062 90.7808 39.1033L90.9585 39.36C90.8953 39.4448 90.8272 39.5136 90.7541 39.5663C90.6811 39.6202 90.6061 39.6614 90.5292 39.6912C90.4522 39.721 90.3752 39.7416 90.2982 39.7543C90.2212 39.7657 90.1478 39.7714 90.0782 39.7714C89.9347 39.7714 89.8001 39.7439 89.6745 39.6889C89.5487 39.6339 89.4389 39.5537 89.3448 39.446C89.2508 39.3382 89.1764 39.2042 89.1218 39.0437C89.0672 38.8833 89.0399 38.6976 89.0399 38.4844C89.0399 38.3251 89.0633 38.1727 89.1099 38.0306C89.1566 37.8873 89.2238 37.7613 89.3113 37.6535C89.3988 37.5458 89.5048 37.461 89.6291 37.3968C89.7534 37.3338 89.8939 37.3029 90.0504 37.3029ZM90.0623 37.7968C89.9452 37.7968 89.8538 37.8358 89.788 37.9137C89.7221 37.9917 89.6787 38.1028 89.6577 38.2495H90.4215C90.4215 38.1922 90.4152 38.1372 90.4028 38.0833C90.3903 38.0295 90.3699 37.9813 90.3417 37.939C90.3133 37.8965 90.2761 37.8622 90.2301 37.8358C90.184 37.8094 90.1281 37.7968 90.0623 37.7968ZM93.4521 37.3817C93.3946 37.3295 93.3185 37.3029 93.2236 37.3029C93.1113 37.3029 93.0077 37.3423 92.9129 37.4223C92.818 37.5011 92.7326 37.609 92.6565 37.747L92.6224 37.5197C92.617 37.4884 92.6106 37.4617 92.6033 37.4408C92.596 37.4188 92.5853 37.4014 92.5712 37.3875C92.5572 37.3748 92.5399 37.3655 92.5192 37.3585C92.4983 37.3527 92.4728 37.3493 92.4419 37.3493H92.0733V39.7714H92.6945V38.2861C92.788 38.0832 92.9163 37.9823 93.0793 37.9823C93.126 37.9823 93.1648 37.9858 93.1955 37.9928C93.2263 37.9997 93.2529 38.0032 93.2757 38.0032C93.3023 38.0032 93.3238 37.9963 93.3398 37.9835C93.3558 37.9708 93.3665 37.9475 93.3718 37.9151L93.4521 37.3817Z" fill="#4B5966"/>
</svg>
